<mxfile host="65bd71144e">
    <diagram id="aSWss9fgncpxhGeWPriy" name="Arquitetura em Camadas">
        <mxGraphModel dx="1640" dy="538" grid="1" gridSize="10" guides="1" tooltips="1" connect="1" arrows="1" fold="1" page="1" pageScale="1" pageWidth="850" pageHeight="1100" math="0" shadow="0">
            <root>
                <mxCell id="0"/>
                <mxCell id="1" parent="0"/>
                <mxCell id="2" value="ecommerce-node-api (back-end)" style="verticalAlign=top;align=left;spacingTop=8;spacingLeft=2;spacingRight=12;shape=cube;size=10;direction=south;fontStyle=4;html=1;strokeWidth=2;" vertex="1" parent="1">
                    <mxGeometry x="190" y="210" width="480" height="320" as="geometry"/>
                </mxCell>
                <mxCell id="4" value="ecommerce-web-app (front-end)" style="verticalAlign=top;align=left;spacingTop=8;spacingLeft=2;spacingRight=12;shape=cube;size=10;direction=south;fontStyle=4;html=1;strokeWidth=2;" vertex="1" parent="1">
                    <mxGeometry x="190" y="80" width="480" height="120" as="geometry"/>
                </mxCell>
                <mxCell id="5" value="Database (Relacional)" style="shape=cylinder3;whiteSpace=wrap;html=1;boundedLbl=1;backgroundOutline=1;size=15;strokeWidth=2;" vertex="1" parent="1">
                    <mxGeometry x="375" y="550" width="110" height="80" as="geometry"/>
                </mxCell>
                <mxCell id="6" value="&lt;div style=&quot;&quot;&gt;&lt;br&gt;&lt;/div&gt;" style="rounded=1;whiteSpace=wrap;html=1;strokeWidth=2;align=center;fillColor=#FF3333;" vertex="1" parent="1">
                    <mxGeometry x="360" y="339" width="270" height="61" as="geometry"/>
                </mxCell>
                <mxCell id="7" value="Camada de dominio" style="text;html=1;strokeColor=none;fillColor=none;align=center;verticalAlign=middle;whiteSpace=wrap;rounded=0;strokeWidth=2;" vertex="1" parent="1">
                    <mxGeometry x="360" y="339" width="120" height="30" as="geometry"/>
                </mxCell>
                <mxCell id="15" style="edgeStyle=none;html=1;exitX=0.664;exitY=1.041;exitDx=0;exitDy=0;entryX=0.56;entryY=-0.011;entryDx=0;entryDy=0;entryPerimeter=0;fontColor=#000000;dashed=1;exitPerimeter=0;" edge="1" parent="1" source="8" target="6">
                    <mxGeometry relative="1" as="geometry"/>
                </mxCell>
                <mxCell id="18" style="edgeStyle=none;html=1;exitX=0.25;exitY=1;exitDx=0;exitDy=0;dashed=1;fontColor=#000000;entryX=0.222;entryY=0.008;entryDx=0;entryDy=0;entryPerimeter=0;" edge="1" parent="1" source="8" target="10">
                    <mxGeometry relative="1" as="geometry"/>
                </mxCell>
                <mxCell id="21" value="" style="edgeStyle=none;html=1;dashed=1;fontColor=#000000;" edge="1" parent="1" source="8" target="13">
                    <mxGeometry relative="1" as="geometry"/>
                </mxCell>
                <mxCell id="8" value="&lt;div style=&quot;&quot;&gt;&lt;br&gt;&lt;/div&gt;" style="rounded=1;whiteSpace=wrap;html=1;strokeWidth=2;align=center;fillColor=#FFFF00;" vertex="1" parent="1">
                    <mxGeometry x="210" y="270" width="420" height="40" as="geometry"/>
                </mxCell>
                <mxCell id="9" value="&lt;font color=&quot;#000000&quot;&gt;Camada de Aplicação&lt;/font&gt;" style="text;html=1;strokeColor=none;fillColor=none;align=center;verticalAlign=middle;whiteSpace=wrap;rounded=0;strokeWidth=2;" vertex="1" parent="1">
                    <mxGeometry x="210" y="270" width="130" height="30" as="geometry"/>
                </mxCell>
                <mxCell id="16" style="edgeStyle=none;html=1;exitX=0.5;exitY=0;exitDx=0;exitDy=0;entryX=0.456;entryY=0.989;entryDx=0;entryDy=0;entryPerimeter=0;dashed=1;fontColor=#000000;" edge="1" parent="1" source="10" target="6">
                    <mxGeometry relative="1" as="geometry"/>
                </mxCell>
                <mxCell id="10" value="&lt;div style=&quot;&quot;&gt;&lt;br&gt;&lt;/div&gt;" style="rounded=1;whiteSpace=wrap;html=1;strokeWidth=2;align=center;fillColor=#99FF99;" vertex="1" parent="1">
                    <mxGeometry x="210" y="430" width="420" height="40" as="geometry"/>
                </mxCell>
                <mxCell id="12" value="&lt;font color=&quot;#000000&quot;&gt;Camada de infraestrututa&lt;/font&gt;" style="text;html=1;strokeColor=none;fillColor=none;align=center;verticalAlign=middle;whiteSpace=wrap;rounded=0;strokeWidth=2;" vertex="1" parent="1">
                    <mxGeometry x="210" y="435" width="150" height="30" as="geometry"/>
                </mxCell>
                <mxCell id="13" value="&lt;div style=&quot;&quot;&gt;&lt;br&gt;&lt;/div&gt;" style="rounded=1;whiteSpace=wrap;html=1;strokeWidth=2;align=center;fillColor=#FF99FF;" vertex="1" parent="1">
                    <mxGeometry x="215" y="130" width="415" height="40" as="geometry"/>
                </mxCell>
                <mxCell id="14" value="Camada de apresentação" style="text;html=1;strokeColor=none;fillColor=none;align=center;verticalAlign=middle;whiteSpace=wrap;rounded=0;labelBackgroundColor=#;strokeWidth=2;fontColor=#000000;" vertex="1" parent="1">
                    <mxGeometry x="450" y="130" width="170" height="30" as="geometry"/>
                </mxCell>
                <mxCell id="20" value="&lt;font color=&quot;#ffffff&quot;&gt;Módulo/Subdomínio&lt;/font&gt;" style="shape=umlFrame;whiteSpace=wrap;html=1;dashed=1;labelBackgroundColor=#;strokeWidth=2;fontColor=#000000;fillColor=#0000FF;strokeColor=#0000FF;width=120;height=20;" vertex="1" parent="1">
                    <mxGeometry x="480" y="240" width="140" height="240" as="geometry"/>
                </mxCell>
                <mxCell id="23" value="&lt;font style=&quot;font-size: 9px;&quot;&gt;entity&lt;/font&gt;" style="rounded=0;whiteSpace=wrap;html=1;dashed=1;labelBackgroundColor=#;strokeColor=#0000FF;strokeWidth=2;fontSize=5;fontColor=#0000FF;fillColor=#FF3333;" vertex="1" parent="1">
                    <mxGeometry x="500" y="344" width="50" height="20" as="geometry"/>
                </mxCell>
                <mxCell id="24" value="&lt;font style=&quot;font-size: 9px;&quot;&gt;types&lt;/font&gt;" style="rounded=0;whiteSpace=wrap;html=1;dashed=1;labelBackgroundColor=#;strokeColor=#0000FF;strokeWidth=2;fontSize=5;fontColor=#0000FF;fillColor=#FF3333;" vertex="1" parent="1">
                    <mxGeometry x="500" y="369" width="50" height="20" as="geometry"/>
                </mxCell>
                <mxCell id="25" value="&lt;font size=&quot;1&quot;&gt;exception&lt;/font&gt;" style="rounded=0;whiteSpace=wrap;html=1;dashed=1;labelBackgroundColor=#;strokeColor=#0000FF;strokeWidth=2;fontSize=5;fontColor=#0000FF;fillColor=#FF3333;" vertex="1" parent="1">
                    <mxGeometry x="560" y="344" width="50" height="20" as="geometry"/>
                </mxCell>
                <mxCell id="26" value="&lt;font style=&quot;font-size: 9px;&quot;&gt;spec&lt;/font&gt;" style="rounded=0;whiteSpace=wrap;html=1;dashed=1;labelBackgroundColor=#;strokeColor=#0000FF;strokeWidth=2;fontSize=5;fontColor=#0000FF;fillColor=#FF3333;" vertex="1" parent="1">
                    <mxGeometry x="560" y="369" width="50" height="20" as="geometry"/>
                </mxCell>
                <mxCell id="27" value="&lt;font style=&quot;font-size: 9px;&quot;&gt;types&lt;/font&gt;" style="rounded=0;whiteSpace=wrap;html=1;dashed=1;labelBackgroundColor=#;strokeColor=#3A5431;strokeWidth=2;fontSize=5;fontColor=#ffffff;fillColor=#99FF99;" vertex="1" parent="1">
                    <mxGeometry x="490" y="435" width="50" height="20" as="geometry"/>
                </mxCell>
            </root>
        </mxGraphModel>
    </diagram>
</mxfile>